<mxfile host="app.diagrams.net" modified="2023-05-31T08:53:34.455Z" agent="Mozilla/5.0 (Windows NT 10.0; Win64; x64) AppleWebKit/537.36 (KHTML, like Gecko) Chrome/113.0.0.0 Safari/537.36" etag="u-z59yMkLI5iZ6GAzETH" version="21.3.3" type="github">
  <diagram name="第 1 页" id="NSUKt5lyfEIl_aef6tYx">
    <mxGraphModel dx="1841" dy="999" grid="1" gridSize="10" guides="1" tooltips="1" connect="1" arrows="1" fold="1" page="1" pageScale="1" pageWidth="827" pageHeight="1169" math="0" shadow="0">
      <root>
        <mxCell id="0" />
        <mxCell id="1" parent="0" />
        <mxCell id="56pG_LA24Mwb4eOG5Uji-2" value="&lt;b&gt;&lt;font style=&quot;font-size: 18px;&quot;&gt;CLFFT 库&lt;/font&gt;&lt;/b&gt;" style="text;strokeColor=none;align=center;fillColor=none;html=1;verticalAlign=middle;whiteSpace=wrap;rounded=0;" vertex="1" parent="1">
          <mxGeometry x="340" y="190" width="106" height="70" as="geometry" />
        </mxCell>
        <mxCell id="56pG_LA24Mwb4eOG5Uji-3" value="" style="rounded=0;whiteSpace=wrap;html=1;" vertex="1" parent="1">
          <mxGeometry x="180" y="250" width="440" height="190" as="geometry" />
        </mxCell>
        <mxCell id="56pG_LA24Mwb4eOG5Uji-4" value="&lt;b&gt;接&lt;br&gt;口&lt;br&gt;层&lt;/b&gt;" style="text;strokeColor=none;align=center;fillColor=none;html=1;verticalAlign=middle;whiteSpace=wrap;rounded=0;" vertex="1" parent="1">
          <mxGeometry x="180" y="295" width="60" height="50" as="geometry" />
        </mxCell>
        <mxCell id="56pG_LA24Mwb4eOG5Uji-5" value="" style="rounded=0;whiteSpace=wrap;html=1;" vertex="1" parent="1">
          <mxGeometry x="801" y="700" width="440" height="110" as="geometry" />
        </mxCell>
        <mxCell id="56pG_LA24Mwb4eOG5Uji-6" value="&lt;b&gt;算&lt;br&gt;法&lt;br&gt;层&lt;br&gt;&lt;/b&gt;" style="text;strokeColor=none;align=center;fillColor=none;html=1;verticalAlign=middle;whiteSpace=wrap;rounded=0;" vertex="1" parent="1">
          <mxGeometry x="790" y="460" width="60" height="50" as="geometry" />
        </mxCell>
        <mxCell id="56pG_LA24Mwb4eOG5Uji-7" value="" style="rounded=0;whiteSpace=wrap;html=1;" vertex="1" parent="1">
          <mxGeometry x="790" y="540" width="440" height="110" as="geometry" />
        </mxCell>
        <mxCell id="56pG_LA24Mwb4eOG5Uji-8" value="&lt;b&gt;代&lt;br&gt;码&lt;br&gt;生&lt;br&gt;成&lt;br&gt;层&lt;br&gt;&lt;/b&gt;" style="text;strokeColor=none;align=center;fillColor=none;html=1;verticalAlign=middle;whiteSpace=wrap;rounded=0;" vertex="1" parent="1">
          <mxGeometry x="827" y="585" width="60" height="50" as="geometry" />
        </mxCell>
        <mxCell id="56pG_LA24Mwb4eOG5Uji-9" value="输入规模：2, 3, 5, 7&amp;nbsp; 幂次组合" style="rounded=1;whiteSpace=wrap;html=1;" vertex="1" parent="1">
          <mxGeometry x="240" y="265" width="340" height="30" as="geometry" />
        </mxCell>
        <mxCell id="56pG_LA24Mwb4eOG5Uji-10" value="输入维度：1D, 2D, 3D" style="rounded=1;whiteSpace=wrap;html=1;" vertex="1" parent="1">
          <mxGeometry x="240" y="305" width="340" height="30" as="geometry" />
        </mxCell>
        <mxCell id="56pG_LA24Mwb4eOG5Uji-11" value="数据排布：Plannar, Interleaved, Stride, Dist" style="rounded=1;whiteSpace=wrap;html=1;" vertex="1" parent="1">
          <mxGeometry x="240" y="350" width="340" height="30" as="geometry" />
        </mxCell>
        <mxCell id="56pG_LA24Mwb4eOG5Uji-13" value="数据排布：Plannar, Interleaved, Stride, Dist" style="rounded=1;whiteSpace=wrap;html=1;" vertex="1" parent="1">
          <mxGeometry x="240" y="390" width="340" height="30" as="geometry" />
        </mxCell>
      </root>
    </mxGraphModel>
  </diagram>
</mxfile>
